<svg xmlns="http://www.w3.org/2000/svg"><symbol id="figma" viewBox="0 0 24 24"><path d="M15.852 8.981h-4.588V0h4.588c2.476 0 4.49 2.014 4.49 4.49s-2.014 4.491-4.49 4.491zM12.735 7.51h3.117c1.665 0 3.019-1.355 3.019-3.019s-1.355-3.019-3.019-3.019h-3.117V7.51zm0 1.471H8.148c-2.476 0-4.49-2.014-4.49-4.49S5.672 0 8.148 0h4.588v8.981zm-4.587-7.51c-1.665 0-3.019 1.355-3.019 3.019s1.354 3.02 3.019 3.02h3.117V1.471H8.148zm4.587 15.019H8.148c-2.476 0-4.49-2.014-4.49-4.49s2.014-4.49 4.49-4.49h4.588v8.98zM8.148 8.981c-1.665 0-3.019 1.355-3.019 3.019s1.355 3.019 3.019 3.019h3.117V8.981H8.148zM8.172 24c-2.489 0-4.515-2.014-4.515-4.49s2.014-4.49 4.49-4.49h4.588v4.441c0 2.503-2.047 4.539-4.563 4.539zm-.024-7.51a3.023 3.023 0 0 0-3.019 3.019c0 1.665 1.365 3.019 3.044 3.019 1.705 0 3.093-1.376 3.093-3.068v-2.97H8.148zm7.704 0h-.098c-2.476 0-4.49-2.014-4.49-4.49s2.014-4.49 4.49-4.49h.098c2.476 0 4.49 2.014 4.49 4.49s-2.014 4.49-4.49 4.49zm-.097-7.509c-1.665 0-3.019 1.355-3.019 3.019s1.355 3.019 3.019 3.019h.098c1.665 0 3.019-1.355 3.019-3.019s-1.355-3.019-3.019-3.019h-.098z"/></symbol><symbol id="anthropic" viewBox="0 0 24 24"><path d="M17.3041 3.541h-3.6718l6.696 16.918H24Zm-10.6082 0L0 20.459h3.7442l1.3693-3.5527h7.0052l1.3693 3.5528h3.7442L10.5363 3.5409Zm-.3712 10.2232 2.2914-5.9456 2.2914 5.9456Z"/></symbol><symbol id="googlegemini" viewBox="0 0 24 24"><path d="M11.04 19.32Q12 21.51 12 24q0-2.49.93-4.68.96-2.19 2.58-3.81t3.81-2.55Q21.51 12 24 12q-2.49 0-4.68-.93a12.3 12.3 0 0 1-3.81-2.58 12.3 12.3 0 0 1-2.58-3.81Q12 2.49 12 0q0 2.49-.96 4.68-.93 2.19-2.55 3.81a12.3 12.3 0 0 1-3.81 2.58Q2.49 12 0 12q2.49 0 4.68.96 2.19.93 3.81 2.55t2.55 3.81"/></symbol><symbol id="github" viewBox="0 0 24 24"><path d="M12 .297c-6.63 0-12 5.373-12 12 0 5.303 3.438 9.8 8.205 11.385.6.113.82-.258.82-.577 0-.285-.01-1.04-.015-2.04-3.338.724-4.042-1.61-4.042-1.61C4.422 18.07 3.633 17.7 3.633 17.7c-1.087-.744.084-.729.084-.729 1.205.084 1.838 1.236 1.838 1.236 1.07 1.835 2.809 1.305 3.495.998.108-.776.417-1.305.76-1.605-2.665-.3-5.466-1.332-5.466-5.93 0-1.31.465-2.38 1.235-3.22-.135-.303-.54-1.523.105-3.176 0 0 1.005-.322 3.3 1.23.96-.267 1.98-.399 3-.405 1.02.006 2.04.138 3 .405 2.28-1.552 3.285-1.23 3.285-1.23.645 1.653.24 2.873.12 3.176.765.84 1.23 1.91 1.23 3.22 0 4.61-2.805 5.625-5.475 5.92.42.36.81 1.096.81 2.22 0 1.606-.015 2.896-.015 3.286 0 .315.21.69.825.57C20.565 22.092 24 17.592 24 12.297c0-6.627-5.373-12-12-12"/></symbol><symbol id="vercel" viewBox="0 0 24 24"><path d="m12 1.608 12 20.784H0Z"/></symbol><symbol id="notion" viewBox="0 0 24 24"><path d="M4.459 4.208c.746.606 1.026.56 2.428.466l13.215-.793c.28 0 .047-.28-.046-.326L17.86 1.968c-.42-.326-.981-.7-2.055-.607L3.01 2.295c-.466.046-.56.28-.374.466zm.793 3.08v13.904c0 .747.373 1.027 1.214.98l14.523-.84c.841-.046.935-.56.935-1.167V6.354c0-.606-.233-.933-.748-.887l-15.177.887c-.56.047-.747.327-.747.933zm14.337.745c.093.42 0 .84-.42.888l-.7.14v10.264c-.608.327-1.168.514-1.635.514-.748 0-.935-.234-1.495-.933l-4.577-7.186v6.952L12.21 19s0 .84-1.168.84l-3.222.186c-.093-.186 0-.653.327-.746l.84-.233V9.854L7.822 9.76c-.094-.42.14-1.026.793-1.073l3.456-.233 4.764 7.279v-6.44l-1.215-.139c-.093-.514.28-.887.747-.933zM1.936 1.035l13.31-.98c1.634-.14 2.055-.047 3.082.7l4.249 2.986c.7.513.934.653.934 1.213v16.378c0 1.026-.373 1.634-1.68 1.726l-15.458.934c-.98.047-1.448-.093-1.962-.747l-3.129-4.06c-.56-.747-.793-1.306-.793-1.96V2.667c0-.839.374-1.54 1.447-1.632z"/></symbol><symbol id="framer" viewBox="0 0 24 24"><path d="M4 0h16v8h-8zM4 8h8l8 8H4zM4 16h8v8z"/></symbol><symbol id="sketch" viewBox="0 0 24 24"><path d="M12 1.25l6.75 6.637V2L12 1.25zm0 0l-6.05 7h12.1l-6.05-7zm0 0L5.25 2v5.887L12 1.25zM5.25 2L0 9l4.416-.68L5.25 2zM0 9l11.959 13.703.008-.014L4.443 9H0zm18.75-7l.834 6.32L24 9l-5.25-7zM24 9h-4.506l-7.523 13.69.029.06L24 9zM12 22.75l-.031-.057-.008.012.039.045zM5.436 9l6.533 13.686L18.564 9H5.436Z"/></symbol><symbol id="lottiefiles" viewBox="0 0 24 24"><path d="M17.928 0H6.072A6.076 6.076 0 0 0 0 6.073v11.854A6.076 6.076 0 0 0 6.073 24h11.854A6.076 6.076 0 0 0 24 17.927V6.073A6.076 6.076 0 0 0 17.927 0m1.42 7.013a1.4 1.4 0 0 1-.26.39c-.11.11-.24.2-.39.26-.14.06-.3.09-.45.09-2.511 0-3.482 1.53-4.792 4.042l-.8 1.51c-1.231 2.382-2.762 5.323-6.894 5.323-.31 0-.62-.12-.84-.35a1.188 1.188 0 0 1 .84-2.031c2.511 0 3.482-1.53 4.792-4.042l.8-1.51c1.231-2.382 2.762-5.323 6.894-5.323q.24 0 .45.09c.14.06.27.15.39.26.11.11.2.24.26.39a1.17 1.17 0 0 1 0 .9"/></symbol><symbol id="wordpress" viewBox="0 0 24 24"><path d="M21.469 6.825c.84 1.537 1.318 3.3 1.318 5.175 0 3.979-2.156 7.456-5.363 9.325l3.295-9.527c.615-1.54.82-2.771.82-3.864 0-.405-.026-.78-.07-1.11m-7.981.105c.647-.03 1.232-.105 1.232-.105.582-.075.514-.93-.067-.899 0 0-1.755.135-2.88.135-1.064 0-2.85-.15-2.85-.15-.585-.03-.661.855-.075.885 0 0 .54.061 1.125.09l1.68 4.605-2.37 7.08L5.354 6.9c.649-.03 1.234-.1 1.234-.1.585-.075.516-.93-.065-.896 0 0-1.746.138-2.874.138-.2 0-.438-.008-.69-.015C4.911 3.15 8.235 1.215 12 1.215c2.809 0 5.365 1.072 7.286 2.833-.046-.003-.091-.009-.141-.009-1.06 0-1.812.923-1.812 1.914 0 .89.513 1.643 1.06 2.531.411.72.89 1.643.89 2.977 0 .915-.354 1.994-.821 3.479l-1.075 3.585-3.9-11.61.001.014zM12 22.784c-1.059 0-2.081-.153-3.048-.437l3.237-9.406 3.315 9.087c.024.053.05.101.078.149-1.12.393-2.325.609-3.582.609M1.211 12c0-1.564.336-3.05.935-4.39L7.29 21.709C3.694 19.96 1.212 16.271 1.211 12M12 0C5.385 0 0 5.385 0 12s5.385 12 12 12 12-5.385 12-12S18.615 0 12 0"/></symbol><symbol id="elementor" viewBox="0 0 24 24"><path d="M12 0C5.372 0 0 5.372 0 12c0 6.626 5.372 12 12 12s12-5.372 12-12c0-6.626-5.372-12-12-12ZM9 17H7V7H9Zm8 0H11V15h6Zm0-4H11V11h6Zm0-4H11V7h6Z"/></symbol></svg>
